<svg id="Layer_1" data-name="Layer 1" xmlns="http://www.w3.org/2000/svg" viewBox="0 0 64 64"><defs><style>.cls-1{fill:#fff;}</style></defs><path class="cls-1" d="M56.66,58.74a3,3,0,0,0,2.08-2.29v2.29Z"/><path d="M7.44,58.74l-.65-.3A2.6,2.6,0,0,1,8,53.54a22.1,22.1,0,0,0,2.52-.11c-.22-.2-.45-.4-.66-.61a4.35,4.35,0,0,1-1.2-4.58c.88-3,1.75-6,2.71-8.89a7.28,7.28,0,0,1,6.16-5.21,2.28,2.28,0,0,0,1.3-.56,2.6,2.6,0,0,1,1.81-.7c1.35,0,2.71,0,4.06,0a1.51,1.51,0,0,0,1.65-1.44c0-.05,0-.1,0-.15a2,2,0,0,0-.82-2.2,8.67,8.67,0,0,1-2.86-5.62l-.44-.05A2.34,2.34,0,0,1,20,21.1c0-.59,0-1.18,0-1.77a2.27,2.27,0,0,1,1-1.92.72.72,0,0,0,.35-.68c0-1.79,0-3.58,0-5.37a3.6,3.6,0,0,1,3.41-3.82c.8-.06,1.26-.15,1.62-1a2.28,2.28,0,0,1,2.22-1.2c3,0,6,0,9,0a5.51,5.51,0,0,1,5.36,6,.81.81,0,0,1-.78.83.8.8,0,0,1-.8-.79c-.05-.45,0-.91-.1-1.35a3.89,3.89,0,0,0-3.79-3.13c-2.91,0-5.83,0-8.75,0a1.05,1.05,0,0,0-1.17.88,1.79,1.79,0,0,1-1.8,1.3c-2.19,0-2.8.62-2.8,2.81v4.94c.95.25,1.36-.07,1.37-1a9.94,9.94,0,0,1,.1-1.81,2.41,2.41,0,0,1,2.36-1.9,11.26,11.26,0,0,1,3.25.61,9.83,9.83,0,0,0,5.24-.23,8.82,8.82,0,0,1,2.29-.35,2.38,2.38,0,0,1,2.39,2.33c0,.43,0,.87,0,1.3,0,1,.31,1.24,1.39,1.1,0-.51,0-1,0-1.54s.33-1,.81-1,.78.39.8,1c0,.21,0,.42,0,.63,0,.68-.07,1.35.67,1.73.07,0,.12.12.17.19a5.42,5.42,0,0,1,0,4.54,2.12,2.12,0,0,1-1.73.93c-.4,0-.5.15-.56.53A9.09,9.09,0,0,1,38,29.65a.63.63,0,0,0-.28.7c.09.42.08.86.15,1.29a1.42,1.42,0,0,0,1.46,1.22c1.41,0,2.82,0,4.22,0a3.64,3.64,0,0,1,1.75.66,3.21,3.21,0,0,0,1.35.57A7.38,7.38,0,0,1,52.9,39.6c.84,2.74,1.64,5.48,2.51,8.21A4.67,4.67,0,0,1,54,53.13c-.11.1-.2.21-.38.4h2.26a2.6,2.6,0,0,1,2.77,2.17,1.48,1.48,0,0,1,.08.13v.62a3,3,0,0,1-2.08,2.29Zm10.1-23-.22,0a1.57,1.57,0,0,0-.3,0,5.7,5.7,0,0,0-4.15,3.87c-.95,3-1.83,6-2.73,8.95A2.88,2.88,0,0,0,11,51.74a11.89,11.89,0,0,1,1.19,1.16c.63.85,1.46.63,2.31.6,0-.19-.08-.32-.11-.45-.41-1.75.63-2.63,2-2.5.37,0,.74,0,1.16,0v-.66c0-1.67,0-3.33,0-5,0-.22,0-.52.12-.64a1.34,1.34,0,0,1,.83-.37c.45,0,.63.42.63.88,0,1.73,0,3.47,0,5.21v.54H45a1.11,1.11,0,0,0,0-.23q0-7.1,0-14.18a1.69,1.69,0,0,0-1.89-1.67H20.69A1.69,1.69,0,0,0,19.12,36c0,.3,0,.59,0,.89v3.91c0,.4-.15.75-.56.82a1.08,1.08,0,0,1-.79-.21,1.24,1.24,0,0,1-.22-.76C17.53,39.05,17.54,37.42,17.54,35.76ZM24.18,21h0c0,.49,0,1,0,1.46-.17,5.08,6.26,10.17,11.68,6.75A8,8,0,0,0,40,22.11C40,21,40,20,40,18.88a.6.6,0,0,0-.38-.63,2.23,2.23,0,0,1-1.29-2.1c0-.49,0-1,0-1.46a.9.9,0,0,0-1-1A6.62,6.62,0,0,0,35.8,14a11.5,11.5,0,0,1-7.31,0,6.44,6.44,0,0,0-1.58-.26c-.74,0-1.07.33-1.09,1.08,0,.43,0,.87,0,1.3a2.36,2.36,0,0,1-1.32,2.2.75.75,0,0,0-.31.5C24.16,19.54,24.18,20.29,24.18,21ZM32,57.18H55.68a2.47,2.47,0,0,0,.82-.11,1,1,0,0,0,0-1.86,1.83,1.83,0,0,0-.66-.11H8.29a1.77,1.77,0,0,0-.61.09.91.91,0,0,0-.68.94.89.89,0,0,0,.65.95,2.44,2.44,0,0,0,.76.1Zm17.66-3.65c.49,0,.94,0,1.39,0a.71.71,0,0,0,.45-.2c.57-.53,1.14-1.07,1.69-1.62A2.86,2.86,0,0,0,54,48.65c-.89-2.93-1.75-5.88-2.67-8.8a5.74,5.74,0,0,0-4.11-4c-.19,0-.39-.07-.57-.1v14.8c.56,0,1.08,0,1.6,0a1.63,1.63,0,0,1,1.62,1.78A9.58,9.58,0,0,1,49.68,53.53Zm-1.4-1.34H15.91c-.08,1,.2,1.34,1.17,1.34H47.21c.72,0,.88-.13,1-.85C48.25,52.53,48.26,52.37,48.28,52.19ZM27.57,32.82h9l-.38-1.94a8.23,8.23,0,0,1-8.19,0c-.05.39-.06.7-.12,1S27.67,32.46,27.57,32.82Zm14-11c.72,0,1-.24,1-.88s0-1.07,0-1.61-.43-.85-1-.7Zm-19-3.24c-.68,0-1,.22-1,.83a14.41,14.41,0,0,0,0,1.61c0,.6.39.86,1,.77Z"/><path d="M32.05,39a3.58,3.58,0,1,1,0,7.15,3.58,3.58,0,0,1,0-7.15Zm0,1.58a2,2,0,1,0,0,4,2,2,0,0,0,0-4Z"/></svg>