<svg id="Layer_1" data-name="Layer 1" xmlns="http://www.w3.org/2000/svg" viewBox="0 0 64 64"><path d="M39.17,5.51A6.56,6.56,0,0,1,40.1,6a2,2,0,0,1,.84,1.64c0,1,0,1.89,0,2.84a2.27,2.27,0,0,1-2.29,2.3q-6.7,0-13.42,0a2.28,2.28,0,0,1-2.29-2.3c0-.71,0-1.42,0-2.12a2.58,2.58,0,0,1,1.79-2.89ZM31.94,7.06h-6.5c-.67,0-.94.27-.94.93s0,1.41,0,2.12c0,1,.18,1.14,1.14,1.14h12.7c.82,0,1-.23,1-1V8.1c0-.8-.25-1-1-1Z"/><path d="M51.78,33.4V55a3.34,3.34,0,0,1-2.72,3.35,3.49,3.49,0,0,1-.72,0H15.54A3.31,3.31,0,0,1,12.11,55q0-21.6,0-43.18a3.29,3.29,0,0,1,3.36-3.42c1.5,0,3,0,4.49,0,.58,0,.91.29.92.75s-.34.8-.93.8H15.61a1.81,1.81,0,0,0-2,2v43a1.84,1.84,0,0,0,2,2H48.26a1.84,1.84,0,0,0,2-2v-43a1.81,1.81,0,0,0-2-2H44c-.63,0-1-.3-1-.8s.36-.75,1-.75c1.53,0,3.06,0,4.59,0a3.27,3.27,0,0,1,3.2,3.32Q51.79,22.57,51.78,33.4Z"/><path d="M20.6,24.2c-.55,0-1.1,0-1.65,0a2.06,2.06,0,0,1-2.16-2c0-1.16,0-2.34,0-3.51a2.08,2.08,0,0,1,2.08-2.07c1.15,0,2.31,0,3.46,0a2.07,2.07,0,0,1,2.07,2.18c0,1.12,0,2.23,0,3.35a2,2,0,0,1-2.09,2.08C21.74,24.21,21.17,24.2,20.6,24.2Zm0-1.54c.51,0,1,0,1.54,0s.71-.2.7-.68V18.84a.57.57,0,0,0-.65-.67H19c-.41,0-.64.18-.64.62q0,1.62,0,3.24a.56.56,0,0,0,.64.63Z"/><path d="M24.4,46.36c0,.6,0,1.21,0,1.81a2,2,0,0,1-1.77,2,35.05,35.05,0,0,1-4,0,2,2,0,0,1-1.87-2c0-1.15,0-2.31,0-3.46a2,2,0,0,1,2.11-2.07c1.14,0,2.27,0,3.41,0a2,2,0,0,1,2.09,2.13c0,.55,0,1.1,0,1.65Zm-3.73-2.23H19c-.38,0-.59.18-.59.56,0,1.11,0,2.23,0,3.34a.5.5,0,0,0,.57.57h3.3a.53.53,0,0,0,.6-.6c0-1.08,0-2.16,0-3.24a.56.56,0,0,0-.64-.63Z"/><path d="M24.4,33.41c0,.56,0,1.13,0,1.7a2.06,2.06,0,0,1-2,2.09q-1.76,0-3.51,0a2.08,2.08,0,0,1-2.05-2.1c0-1.13,0-2.27,0-3.4A2.09,2.09,0,0,1,19,29.58h3.3A2.07,2.07,0,0,1,24.4,31.7C24.41,32.27,24.4,32.84,24.4,33.41Zm-1.55,0c0-.52,0-1,0-1.55s-.22-.7-.68-.7H19c-.44,0-.66.19-.66.65,0,1.07,0,2.13,0,3.2a.57.57,0,0,0,.62.65h3.24a.57.57,0,0,0,.62-.66Z"/><path d="M37.87,17.62h8.36a.79.79,0,1,1,0,1.58H29.94c-.86,0-1.24-.25-1.23-.81s.39-.78,1.22-.78Z"/><path d="M37.88,32.17H29.63c-.59,0-.91-.27-.92-.75a.75.75,0,0,1,.66-.79,2.36,2.36,0,0,1,.46,0h16.1a2.26,2.26,0,0,1,.26,0,.82.82,0,0,1,.9.78c0,.46-.35.77-.9.77Z"/><path d="M37.88,43.61h8.51a.71.71,0,0,1,.69.71.75.75,0,0,1-.63.82,1.78,1.78,0,0,1-.46,0H29.79a3,3,0,0,1-.42,0,.74.74,0,0,1-.66-.8.72.72,0,0,1,.7-.74h8.47Z"/><path d="M33.7,21.63h4c.62,0,.94.27.94.77s-.33.77-.94.77h-8.1c-.59,0-.93-.31-.91-.8s.34-.74.92-.74Z"/><path d="M33.7,34.6h4c.58,0,.89.24.93.68s-.29.89-.93.89h-8.1c-.58,0-.93-.33-.91-.82s.33-.75.92-.75Z"/><path d="M33.7,49.14H29.63c-.59,0-.91-.28-.92-.75s.34-.82,1-.82h8.1c.56,0,.89.31.89.78s-.3.78-.88.79Z"/></svg>