<svg id="Layer_1" data-name="Layer 1" xmlns="http://www.w3.org/2000/svg" viewBox="0 0 64 64"><defs><style>.cls-1{fill:#272626;}</style></defs><path class="cls-1" d="M45.17,53.89H18.83a7.26,7.26,0,0,1-1.17-.37A3.62,3.62,0,0,1,15.58,50V27.87c0-1.07.26-1.34,1.33-1.35h2.32V23.1A12.4,12.4,0,0,1,22.81,14,12.36,12.36,0,0,1,34.9,10.46a12.69,12.69,0,0,1,9.85,12.17c0,1.14,0,2.28,0,3.42v.47h2.54c.75,0,1.11.34,1.11,1.09q0,11.27,0,22.53a3.44,3.44,0,0,1-1.5,3A10.07,10.07,0,0,1,45.17,53.89ZM39.28,26.51c0-1.32,0-2.6,0-3.88a6.74,6.74,0,0,0-1.5-4.18,7,7,0,0,0-7.16-2.71A7,7,0,0,0,25,21c-.51,1.78-.2,3.62-.24,5.44,0,0,0,0,.06.07ZM32,46.6h1.63c.85,0,1.22-.44,1.12-1.28-.18-1.55-.35-3.11-.51-4.67a.5.5,0,0,1,.15-.39,3.64,3.64,0,0,0-3.18-6.33,3.65,3.65,0,0,0-1.54,6.32.55.55,0,0,1,.17.42c-.16,1.57-.34,3.14-.52,4.71a1,1,0,0,0,1.06,1.22Z"/></svg>