<svg id="Layer_1" data-name="Layer 1" xmlns="http://www.w3.org/2000/svg" viewBox="0 0 64 64"><defs><style>.cls-1{fill:#fff;}</style></defs><path d="M37,5.34a.77.77,0,0,0,.23.1,5,5,0,0,1,3,1.89,3.22,3.22,0,0,0,3.28,1.32A5.1,5.1,0,0,1,49,12.09l.12.4a3,3,0,0,0,2.33,2.32,5.12,5.12,0,0,1,3.81,5.61,3.22,3.22,0,0,0,1.34,3.23,5,5,0,0,1,1.32,6.52,3.4,3.4,0,0,0,0,3.58,5,5,0,0,1-1.3,6.49,3.37,3.37,0,0,0-1.37,3.31A5.1,5.1,0,0,1,51.82,49l-.45.12a3.08,3.08,0,0,0-2.27,2.27,5.06,5.06,0,0,1-4.63,3.9,8.23,8.23,0,0,1-1.4-.05,3,3,0,0,0-2.67,1.2,5.11,5.11,0,0,1-6.89,1.37,3.11,3.11,0,0,0-3.16,0,5.08,5.08,0,0,1-6.84-1.39,3.21,3.21,0,0,0-3.14-1.18,5,5,0,0,1-5.47-3.56A3.57,3.57,0,0,0,12.2,49a5,5,0,0,1-3.55-5.44,3.27,3.27,0,0,0-1.36-3.31,4.92,4.92,0,0,1-1.84-2.93,1.53,1.53,0,0,0-.11-.27V35.39c.33-.78.66-1.55,1-2.32a2.88,2.88,0,0,0,0-2.23c-.32-.77-.65-1.54-1-2.32V26.86a1.36,1.36,0,0,0,.11-.28,4.93,4.93,0,0,1,1.84-2.92,3.27,3.27,0,0,0,1.36-3.31,5.09,5.09,0,0,1,3.58-5.47,5.77,5.77,0,0,0,1.33-.56,3.37,3.37,0,0,0,1.34-2.14,5.07,5.07,0,0,1,5.45-3.53,3.27,3.27,0,0,0,3.31-1.36,4.72,4.72,0,0,1,2.62-1.76,5.62,5.62,0,0,0,.58-.19h1.66l2.32,1a2.85,2.85,0,0,0,2.22,0l2.32-1ZM10.82,44a2.86,2.86,0,0,0,2.36,3.11,5,5,0,0,1,3.58,3.5,3.11,3.11,0,0,0,3.79,2.52,4.86,4.86,0,0,1,4.53,1.9,3.07,3.07,0,0,0,4.38.88,4.94,4.94,0,0,1,5,0,3,3,0,0,0,4.34-.85,5,5,0,0,1,4.62-1.93,3.08,3.08,0,0,0,3.71-2.49,5,5,0,0,1,3.5-3.51,3.11,3.11,0,0,0,2.51-3.76A4.89,4.89,0,0,1,55,38.85c1.6-1.31,1.87-2.61.9-4.41a4.94,4.94,0,0,1,0-5c1-1.82.73-3.13-.88-4.41a4.52,4.52,0,0,1-1.75-2.75A12.4,12.4,0,0,1,53.19,20a3,3,0,0,0-2.25-3.1A5.21,5.21,0,0,1,47,13a2.93,2.93,0,0,0-3.14-2.23,13.22,13.22,0,0,1-1.4.06,5.14,5.14,0,0,1-3.83-2.11,3,3,0,0,0-4-.81,5.1,5.1,0,0,1-5.41,0,3,3,0,0,0-4,.78,5.13,5.13,0,0,1-4.89,2.1,3,3,0,0,0-3.59,2.47,5,5,0,0,1-3.53,3.55,3.09,3.09,0,0,0-2.48,3.72A4.93,4.93,0,0,1,8.83,25.1,3.05,3.05,0,0,0,8,29.45a5,5,0,0,1,0,5,3,3,0,0,0,.88,4.37,4.61,4.61,0,0,1,1.77,2.79A21.54,21.54,0,0,1,10.82,44Z"/><path class="cls-1" d="M26.86,5.34a5.62,5.62,0,0,1-.58.19,4.72,4.72,0,0,0-2.62,1.76,3.27,3.27,0,0,1-3.31,1.36,5.07,5.07,0,0,0-5.45,3.53,3.37,3.37,0,0,1-1.34,2.14,5.77,5.77,0,0,1-1.33.56,5.09,5.09,0,0,0-3.58,5.47,3.27,3.27,0,0,1-1.36,3.31,4.93,4.93,0,0,0-1.84,2.92,1.36,1.36,0,0,1-.11.28V5.34Z"/><path class="cls-1" d="M5.34,28.52c.33.78.66,1.55,1,2.32a2.88,2.88,0,0,1,0,2.23c-.32.77-.65,1.54-1,2.32Z"/><path class="cls-1" d="M35.38,5.34l-2.32,1a2.85,2.85,0,0,1-2.22,0l-2.32-1Z"/><path d="M51.7,31.91A19.76,19.76,0,1,1,28.16,12.56,19.41,19.41,0,0,1,42,14.91a1.08,1.08,0,0,1,.64,1.14.92.92,0,0,1-.84.86,1.77,1.77,0,0,1-.92-.23A17.4,17.4,0,0,0,34,14.41a17.22,17.22,0,0,0-12.15,3.06,17.2,17.2,0,0,0-7.34,11.67,17.65,17.65,0,0,0,34,9,17.37,17.37,0,0,0-1.11-14.74,2,2,0,0,1-.3-1,.92.92,0,0,1,.79-.9,1,1,0,0,1,1.17.57c.62,1.36,1.29,2.71,1.78,4.13A16.77,16.77,0,0,1,51.7,31.91Z"/><path d="M43.42,37.59A4.17,4.17,0,1,1,39.6,33.3,4.2,4.2,0,0,1,43.42,37.59Zm-2.1-.14a2.07,2.07,0,0,0-2.08-2.07,2.08,2.08,0,1,0,0,4.16A2.07,2.07,0,0,0,41.32,37.45Z"/><path d="M24.65,30.61a4.16,4.16,0,1,1,4.17-4.15A4.15,4.15,0,0,1,24.65,30.61Zm0-2.08a2.09,2.09,0,1,0,0-4.17,2.09,2.09,0,0,0,0,4.17Z"/><path d="M36.91,24a5.22,5.22,0,0,1-.22.58q-3.8,7.83-7.61,15.67c-.29.6-.65.84-1.15.78a.94.94,0,0,1-.89-.81,1.44,1.44,0,0,1,.12-.79q3.84-7.95,7.71-15.9a1,1,0,0,1,1.22-.64A1.08,1.08,0,0,1,36.91,24Z"/><path d="M46.29,18.78a1,1,0,1,1-2.07,0,1.08,1.08,0,0,1,1-1A1.06,1.06,0,0,1,46.29,18.78Z"/></svg>