<svg id="Layer_1" data-name="Layer 1" xmlns="http://www.w3.org/2000/svg" viewBox="0 0 64 64"><defs><style>.cls-1{fill:#fff;}.cls-2{fill:#272626;}</style></defs><path class="cls-1" d="M26.86,5.34a5.62,5.62,0,0,1-.58.19,4.72,4.72,0,0,0-2.62,1.76,3.27,3.27,0,0,1-3.31,1.36,5.07,5.07,0,0,0-5.45,3.53,3.37,3.37,0,0,1-1.34,2.14,5.77,5.77,0,0,1-1.33.56,5.09,5.09,0,0,0-3.58,5.47,3.27,3.27,0,0,1-1.36,3.31,4.93,4.93,0,0,0-1.84,2.92,1.36,1.36,0,0,1-.11.28V5.34Z"/><path class="cls-1" d="M5.34,28.52c.33.78.66,1.55,1,2.32a2.88,2.88,0,0,1,0,2.23c-.32.77-.65,1.54-1,2.32Z"/><path class="cls-1" d="M35.38,5.34l-2.32,1a2.85,2.85,0,0,1-2.22,0l-2.32-1Z"/><path class="cls-2" d="M32.85,12.17c.79.18,1.6.28,2.37.53a10.42,10.42,0,1,1-4.37-.46,1.63,1.63,0,0,0,.3-.07Z"/><path class="cls-2" d="M32,51.83H16c-1,0-1.41-.45-1.4-1.43a15.27,15.27,0,0,1,12.8-14.81,13.52,13.52,0,0,1,2-.17c1.67,0,3.35,0,5,0a15.23,15.23,0,0,1,15,15,1.19,1.19,0,0,1-1.36,1.38Z"/></svg>