<svg id="Layer_1" data-name="Layer 1" xmlns="http://www.w3.org/2000/svg" viewBox="0 0 64 64"><defs><style>.cls-1{fill:#fff;}</style></defs><path d="M58.66,10.64V53.25c-.63,1.84-2,2.39-3.82,2.39-15.3,0-30.59,0-45.88,0a5.42,5.42,0,0,1-.57,0,3,3,0,0,1-2.94-3.06V11.35a2.89,2.89,0,0,1,.07-.72A3,3,0,0,1,8.75,8.28h47a3,3,0,0,1,2.55,1.53A7.87,7.87,0,0,1,58.66,10.64Zm-1.59,8.54H14.64c-.22,0-.45,0-.67,0a.72.72,0,0,1-.72-.74.76.76,0,0,1,.71-.81,4.47,4.47,0,0,1,.52,0H57.05a1.07,1.07,0,0,0,.05-.16V11.63c0-1.23-.5-1.75-1.72-1.75H8.72c-1.2,0-1.72.52-1.72,1.7v6h3.29a.78.78,0,1,1,0,1.56c-.81,0-1.62,0-2.44,0H7c0,.18,0,.26,0,.35V52.42A1.43,1.43,0,0,0,8.62,54q21.62,0,43.24,0l.3,0-3-3c-.46.47-1,1-1.47,1.51a1.35,1.35,0,0,1-2.36-1c0-2.58,0-5.16,0-7.74a1.35,1.35,0,0,1,1.5-1.51h7.7a1.36,1.36,0,0,1,1.39.88,1.31,1.31,0,0,1-.42,1.54L54,46.13l3,3ZM46.93,50.94l.12.07c.36-.39.72-.79,1.1-1.16a1.41,1.41,0,0,1,2.32,0c1.23,1.22,2.45,2.45,3.67,3.67l.33.32,2.43-2.44-.31-.33-3.71-3.71a1.38,1.38,0,0,1,0-2.25c.38-.38.77-.76,1.21-1.21H46.93Z"/><path d="M32.1,24H49.51a3,3,0,0,1,3.14,2.21,4.17,4.17,0,0,1,.15,1.17q0,5.82,0,11.64a2,2,0,0,1,0,.42.79.79,0,0,1-1.57,0,4.47,4.47,0,0,1,0-.52V27.44c0-1.29-.55-1.84-1.82-1.84H14.68a1.55,1.55,0,0,0-1.78,1.77V47c0,1.22.56,1.78,1.77,1.78H42.05c.83,0,1.22.25,1.22.8s-.38.77-1.22.77c-9.09,0-18.19,0-27.28,0a3.31,3.31,0,0,1-3.49-3.49c0-6.5,0-13,0-19.49a3.13,3.13,0,0,1,2.37-3.29A4.88,4.88,0,0,1,14.75,24Z"/><path d="M22.57,36.17a4.18,4.18,0,0,1,1.95,2.71A4,4,0,0,1,21,43.58c-1.42.08-2.84.06-4.26.06-.66,0-.95-.29-.95-1V31.19c0-.6.27-1,.78-1a26.55,26.55,0,0,1,3.89.06,3.45,3.45,0,0,1,2.29,5.66C22.68,36,22.64,36.08,22.57,36.17ZM17.37,42h3.22A2.41,2.41,0,0,0,23,39.86a2.32,2.32,0,0,0-2-2.55,33.75,33.75,0,0,0-3.63,0c0,.15,0,.27,0,.39Zm0-6.36h2.4a2.38,2.38,0,0,0,.46,0A1.93,1.93,0,0,0,22,33.77a1.84,1.84,0,0,0-1.45-1.89,29.07,29.07,0,0,0-3.1,0Z"/><path d="M36.76,35.36c0,1.14,0,2.28,0,3.43a4.51,4.51,0,0,1-3.47,4.63,5,5,0,0,1-5.79-2.23A4.18,4.18,0,0,1,27,39.37c-.06-2.75,0-5.5,0-8.26a.78.78,0,1,1,1.55,0c0,.14,0,.28,0,.42,0,2.42.05,4.85,0,7.27A3,3,0,0,0,30.8,41.9a3.51,3.51,0,0,0,4-1.39A3,3,0,0,0,35.16,39c0-2.52,0-5,0-7.58,0-.14,0-.28,0-.42a.82.82,0,0,1,.81-.83.78.78,0,0,1,.75.83c0,1.44,0,2.88,0,4.32Z"/><path d="M24.16,12.94H36.78a1.79,1.79,0,0,1,.61.07.77.77,0,0,1-.11,1.47,2.73,2.73,0,0,1-.57,0H11.52a3.62,3.62,0,0,1-.47,0,.74.74,0,0,1-.73-.78.77.77,0,0,1,.75-.78,3.65,3.65,0,0,1,.47,0Z"/><path d="M43.79,35.33,45,33.44l1.73-2.65c.34-.53.8-.68,1.21-.4s.45.73.1,1.27c-1.08,1.67-2.18,3.33-3.24,5a1.54,1.54,0,0,0-.25.81c0,1.62,0,3.25,0,4.88,0,.15,0,.31,0,.46a.76.76,0,0,1-.77.81.78.78,0,0,1-.79-.84c0-1.54,0-3.08,0-4.62a3.25,3.25,0,0,0-.63-2.11c-1-1.47-2-3-2.93-4.47-.33-.51-.28-1,.12-1.23s.84-.16,1.21.38l.14.22,2.55,3.9C43.55,35,43.65,35.14,43.79,35.33Z"/><path d="M40.69,13.76a2.69,2.69,0,1,1,5.37,0,2.74,2.74,0,0,1-2.69,2.68A2.7,2.7,0,0,1,40.69,13.76Zm3.76,0a1.09,1.09,0,0,0-1.09-1.08,1.13,1.13,0,0,0-1.1,1.1,1.1,1.1,0,0,0,1.14,1.09A1.05,1.05,0,0,0,44.45,13.72Z"/><path d="M51,11.06a2.69,2.69,0,1,1-2.7,2.64A2.71,2.71,0,0,1,51,11.06ZM52,13.73A1.09,1.09,0,0,0,51,12.64a1.13,1.13,0,0,0-1.11,1.09A1.1,1.1,0,0,0,51,14.83,1.05,1.05,0,0,0,52,13.73Z"/><path class="cls-1" d="M17.37,42V37.67c0-.12,0-.24,0-.39a33.75,33.75,0,0,1,3.63,0,2.32,2.32,0,0,1,2,2.55A2.41,2.41,0,0,1,20.59,42Z"/><path class="cls-1" d="M17.4,35.68V31.85a29.07,29.07,0,0,1,3.1,0A1.84,1.84,0,0,1,22,33.77a1.93,1.93,0,0,1-1.69,1.87,2.38,2.38,0,0,1-.46,0Z"/></svg>