<svg id="Layer_1" data-name="Layer 1" xmlns="http://www.w3.org/2000/svg" viewBox="0 0 64 64"><path d="M38.91,5.36c.31.08.63.15.94.25a6.84,6.84,0,0,1,4.51,4,.56.56,0,0,0,.61.4h9.5c1,0,1.42.39,1.42,1.41V22.2c0,.16,0,.36,0,.46s-.43.56-.68.58a1.18,1.18,0,0,1-.76-.46c-.12-.14-.1-.43-.1-.65V11.67H45.06l-.76,3.84H50c.65,0,1,.29,1,.79s-.38.77-1,.77c-2.2,0-4.39,0-6.59,0a1,1,0,0,0-.61.17,6.93,6.93,0,0,1-4.53,1.93l-.26.06V32.69H54.3V26.56a3.65,3.65,0,0,1,0-.47.82.82,0,0,1,.79-.75.77.77,0,0,1,.77.76c0,.45,0,.9,0,1.35,0,1.82,0,3.64,0,5.45,0,1-.4,1.42-1.42,1.42H37.8c-1,0-1.4-.39-1.4-1.43q0-6.66,0-13.34c0-.36-.08-.54-.46-.65A6.92,6.92,0,0,1,36.8,5.45,1.17,1.17,0,0,0,37,5.36Zm4.39,6.92A5.35,5.35,0,1,0,38,17.63,5.36,5.36,0,0,0,43.3,12.28Z"/><path d="M11.4,53.07V40.19c0-1.15.34-1.5,1.48-1.5H15V27.62c0-1.12.37-1.48,1.5-1.48H31.28c1.08,0,1.47.38,1.47,1.46v5a.84.84,0,0,1-.78.88.81.81,0,0,1-.82-.88c0-1.34,0-2.67,0-4v-.84c-.19,0-.33,0-.46,0H27v2.68c0,1-.4,1.42-1.41,1.43H22.22c-1,0-1.38-.41-1.38-1.39V27.74H16.65V38.66h14.5V36.77a4.34,4.34,0,0,1,0-.51.79.79,0,0,1,.81-.73.76.76,0,0,1,.76.77c0,.55,0,1.1,0,1.66v.73H51c1.21,0,1.53.33,1.53,1.54q0,6.08,0,12.15V53l.59,0h3.58A1.15,1.15,0,0,1,58,54.34c0,1,0,2,0,3s-.44,1.24-1.31,1.24H7.23a1.15,1.15,0,0,1-1.32-1.29c0-1,0-1.91,0-2.86s.44-1.31,1.36-1.32ZM7.54,57H56.35V54.67H49a2.24,2.24,0,0,1-.52,0,.75.75,0,0,1-.65-.81.78.78,0,0,1,.84-.74c.74,0,1.48,0,2.24,0V40.25H46.69c0,1,0,1.91,0,2.82a1.11,1.11,0,0,1-1.24,1.26c-1.14,0-2.29,0-3.43,0s-1.44-.35-1.44-1.47V40.28H36.41V53.07h8.47a.83.83,0,0,1,.84.76.82.82,0,0,1-.82.83,5.42,5.42,0,0,1-.57,0H7.54ZM27.19,40.27c0,1,0,1.95,0,2.9a1,1,0,0,1-1.11,1.15q-2.2,0-4.41,0a1,1,0,0,1-1.08-1,6.77,6.77,0,0,1,0-.78c0-.75,0-1.51,0-2.28H13.05V53H34.73V40.27Zm-1.6,2.46V40.28h-3.4v2.45Zm-.25-12.54V27.73H22.43v2.46ZM45.1,42.74V40.29H42.18v2.45Z"/><path d="M46.18,19.42H50c.47,0,.86.13,1,.66S50.7,21,50,21c-1.46,0-2.91,0-4.36,0H42.21c-.46,0-.82-.16-.91-.66s.26-.93.94-.93Z"/><path d="M46.13,23.34H50c.63,0,1,.32,1,.81s-.35.77-1,.77H42.21c-.62,0-.93-.29-.93-.8s.34-.77,1-.78Z"/><path d="M44.78,28.83H42.13a.77.77,0,0,1-.85-.76.76.76,0,0,1,.83-.79c1.77,0,3.53,0,5.29,0a.78.78,0,0,1,.84.79.8.8,0,0,1-.87.76Z"/><path d="M37.55,12.94l2.56-2.57c.3-.3.68-.47,1-.18a1.47,1.47,0,0,1,.36.83c0,.14-.15.35-.27.48l-3,3a.81.81,0,0,1-1.34,0q-1.09-1.06-2.16-2.16a.79.79,0,1,1,1.1-1.11C36.4,11.74,36.94,12.32,37.55,12.94Z"/></svg>