<svg id="Layer_1" data-name="Layer 1" xmlns="http://www.w3.org/2000/svg" viewBox="0 0 64 64"><path d="M5.34,38.5a2.82,2.82,0,0,1,2-2,5.88,5.88,0,0,1,1.39-.1,1.08,1.08,0,0,0,1.19-.79,3.45,3.45,0,0,1,.2-.48,1,1,0,0,0-.26-1.26c-.22-.22-.44-.44-.64-.68a2.62,2.62,0,0,1,.07-3.62c.83-.88,1.69-1.75,2.57-2.58a2.63,2.63,0,0,1,3.67,0c.15.14.3.29.44.44.65.63.81.67,1.65.32,1-.42,1.05-.48,1.06-1.73a2.67,2.67,0,0,1,2-2.82,2.15,2.15,0,0,1,.61-.09c1.32,0,2.64,0,3.95,0a2.52,2.52,0,0,1,2.3,2.29c0,.42,0,.83.05,1.25a.9.9,0,0,0,.61.88l.57.25a1.08,1.08,0,0,0,1.4-.27,6.13,6.13,0,0,1,.79-.74,2.53,2.53,0,0,1,3.26.07c1,.92,2,1.89,2.9,2.9a2.54,2.54,0,0,1,0,3.26,9.48,9.48,0,0,1-.81.87,1,1,0,0,0-.23,1.19c.07.19.17.37.23.57a1,1,0,0,0,1.07.73c.34,0,.69,0,1,0a2.51,2.51,0,0,1,2.38,2.38c.06,1.37.06,2.74,0,4.1a2.56,2.56,0,0,1-2.47,2.36h-.42c-1.25,0-1.29,0-1.79,1.22a1.07,1.07,0,0,0,.26,1.35,5.8,5.8,0,0,1,.55.56,2.62,2.62,0,0,1,0,3.7c-.83.89-1.69,1.74-2.57,2.57a2.62,2.62,0,0,1-3.59.09,6,6,0,0,1-.45-.42c-.79-.78-.81-.79-1.85-.35-.82.34-.87.47-.93,1.36a5.42,5.42,0,0,1-.33,1.8,2.36,2.36,0,0,1-2.25,1.42c-1.23,0-2.46,0-3.69,0A2.63,2.63,0,0,1,18.65,56v-.26c0-1.38-.07-1.45-1.38-1.94a.94.94,0,0,0-1.09.22,11.24,11.24,0,0,1-.87.82,2.52,2.52,0,0,1-3.29,0,36.07,36.07,0,0,1-2.91-2.89,2.55,2.55,0,0,1,0-3.38,3.38,3.38,0,0,1,.31-.35c1-1,1-1,.39-2.24a1,1,0,0,0-1.05-.68,6.41,6.41,0,0,1-1.24,0,2.62,2.62,0,0,1-2-1.68c0-.12-.11-.24-.17-.36Zm6.77-3.84c-.23.64-.44,1.29-.71,1.92A2.63,2.63,0,0,1,9,38.18H8.15c-.66,0-1,.32-1,1,0,1.11,0,2.22,0,3.33a.94.94,0,0,0,1,1H9A2.54,2.54,0,0,1,11.35,45c.91,1.79,1,3-.64,4.5-.59.54-.56,1,0,1.56l2.06,2.06c.74.73,1.05.7,1.83,0a5.59,5.59,0,0,1,1.52-1,3.35,3.35,0,0,1,2.77.49,2.57,2.57,0,0,1,1.48,1.89,6.7,6.7,0,0,1,0,1.19c0,.86.34,1.18,1.21,1.19h2.24c1.78,0,1.81,0,1.87-1.81a2.65,2.65,0,0,1,1.63-2.5c.3-.14.6-.26.91-.38a2.65,2.65,0,0,1,2.89.55c.18.16.34.34.52.51.61.6,1,.6,1.63,0s1.11-1.1,1.66-1.66c1.22-1.21,1.22-1.27,0-2.52a3.47,3.47,0,0,1,1.44-5.38,3.63,3.63,0,0,1,.66-.1c.26,0,.52,0,.78,0,.85,0,1.17-.32,1.17-1.15V39.89c0-1.63-.06-1.69-1.68-1.71a2.63,2.63,0,0,1-2.41-1.27,7.84,7.84,0,0,1-.69-1.67,2.41,2.41,0,0,1,.53-2.33c.24-.29.53-.54.79-.83a.88.88,0,0,0,0-1.3q-1.2-1.25-2.46-2.46a.88.88,0,0,0-1.3,0c-.25.22-.48.45-.71.69-1.58,1.68-5.15,0-5.31-1.74,0-.49-.06-1-.08-1.45a.88.88,0,0,0-1-1H21.42a.91.91,0,0,0-1,.95c0,.31,0,.62,0,.93A2.46,2.46,0,0,1,19.16,29a8.35,8.35,0,0,1-1.66.7,2.47,2.47,0,0,1-2.41-.6c-.26-.22-.49-.49-.75-.72a.88.88,0,0,0-1.34,0c-.82.8-1.63,1.61-2.42,2.43a.86.86,0,0,0,0,1.3c.2.23.44.44.65.67A3.32,3.32,0,0,1,12.11,34.66Z"/><path d="M37.87,5.34l.26.14A2.68,2.68,0,0,1,39.94,8c0,.85,0,1.7,0,2.55a1,1,0,0,0,.73,1.11c.71.28,1.42.56,2.11.88a1,1,0,0,0,1.27-.23c.56-.58,1.14-1.16,1.72-1.73a2.67,2.67,0,0,1,4,0c1.2,1.18,2.39,2.36,3.57,3.56a2.66,2.66,0,0,1,0,4c-.56.58-1.12,1.14-1.69,1.69a1.05,1.05,0,0,0-.27,1.35c.31.69.59,1.4.87,2.11a1,1,0,0,0,1,.7c.83,0,1.66,0,2.49,0a2.68,2.68,0,0,1,2.8,2.82v5a2.71,2.71,0,0,1-2.86,2.87c-.81,0-1.63,0-2.44,0a1,1,0,0,0-1,.71c-.28.72-.57,1.44-.89,2.15a1,1,0,0,0,.22,1.22l1.73,1.73a2.67,2.67,0,0,1,0,4.05C52.14,45.67,51,46.85,49.77,48a2.62,2.62,0,0,1-3.85.12c-1-.92-1.92-1.9-2.88-2.86a.89.89,0,0,1-.2-1.13.79.79,0,0,1,1-.41,1.52,1.52,0,0,1,.63.42c.85.82,1.67,1.66,2.51,2.49.62.62,1,.61,1.68,0L52,43.28c.6-.6.6-1,0-1.63L50.32,40a2.67,2.67,0,0,1-.6-3.27c.29-.67.58-1.34.84-2a2.71,2.71,0,0,1,2.7-1.89h2.49c.69,0,1-.33,1-1,0-1.67,0-3.33,0-5,0-.72-.33-1-1.06-1s-1.6,0-2.39,0a2.69,2.69,0,0,1-2.8-1.95c-.26-.68-.55-1.34-.84-2a2.62,2.62,0,0,1,.58-3.14c.57-.59,1.15-1.15,1.72-1.73s.58-1,0-1.6c-1.14-1.14-2.27-2.28-3.42-3.42a.94.94,0,0,0-1.56,0l-1.73,1.73a2.64,2.64,0,0,1-3.18.57L40,13.33a2.64,2.64,0,0,1-1.82-2.58c0-.83,0-1.66,0-2.5S37.82,7.12,37,7.11H32.23c-.84,0-1.13.32-1.15,1.17s0,1.91-.06,2.86a2.42,2.42,0,0,1-1.57,2.09c-.82.36-1.65.7-2.48,1a2.58,2.58,0,0,1-2.92-.56c-.62-.59-1.2-1.2-1.81-1.8s-1-.58-1.6,0l-3.42,3.41a1,1,0,0,0,0,1.57c.81.83,1.64,1.64,2.46,2.47a2.68,2.68,0,0,1,.28.3.87.87,0,0,1,0,1.22.89.89,0,0,1-1.26,0c-.24-.2-.45-.43-.67-.65-.71-.71-1.42-1.42-2.12-2.14a2.66,2.66,0,0,1,0-4q1.76-1.8,3.57-3.57a2.65,2.65,0,0,1,4,0c.57.56,1.14,1.12,1.69,1.69a1.07,1.07,0,0,0,1.36.24q1-.46,2-.84a1,1,0,0,0,.76-1.09c0-.79,0-1.59,0-2.39a2.7,2.7,0,0,1,2-2.79.35.35,0,0,0,.13-.08Z"/><path d="M46.14,29.64a11.31,11.31,0,0,1-3.24,7.67.93.93,0,0,1-1.37.17.89.89,0,0,1,.06-1.38,10,10,0,0,0,2.69-5.33,9.74,9.74,0,0,0-16.36-8.56,1.54,1.54,0,0,1-.19.17.9.9,0,0,1-1.3-.05.85.85,0,0,1,.11-1.25,18.11,18.11,0,0,1,2.85-2A11.42,11.42,0,0,1,43.52,22,11.56,11.56,0,0,1,46.14,29.64Z"/><path d="M23,48.81a8,8,0,0,1-7.93-8.28,8,8,0,0,1,16,.34C31,46,27.29,48.68,23,48.81Zm.07-14.17A6.2,6.2,0,1,0,29.26,41,6.19,6.19,0,0,0,23.11,34.64Z"/></svg>