<svg id="Layer_1" data-name="Layer 1" xmlns="http://www.w3.org/2000/svg" viewBox="0 0 64 64"><defs><style>.cls-1{fill:#fff;}</style></defs><path d="M5.51,30.71A12.63,12.63,0,0,1,5.94,29a28.37,28.37,0,0,1,1.3-2.73c.35-.63.77-.75,1.21-.47s.49.72.08,1.33a8.84,8.84,0,0,0,2.81,12.38,7.68,7.68,0,0,0,9-.7,6.06,6.06,0,0,0,.6-.64,1.16,1.16,0,0,0-.06-1.7,1.13,1.13,0,0,0-1.65.15A4.78,4.78,0,0,1,16,38.23a6.2,6.2,0,0,1-6.23-4.1A6.28,6.28,0,0,1,16,25.66a5.92,5.92,0,0,1,2.89,1A1.16,1.16,0,0,0,20.75,26a1.17,1.17,0,0,0-.52-1.3,8.38,8.38,0,0,0-8.71-.41c-.53.29-.94.18-1.17-.28s-.09-.81.44-1.09a9.71,9.71,0,0,1,10.27.46,2.73,2.73,0,1,1-3,4.58,4.68,4.68,0,1,0-1.85,8.61,3.17,3.17,0,0,0,1.92-1.12,2.6,2.6,0,0,1,2.72-.8,2.53,2.53,0,0,1,1.92,2,2.61,2.61,0,0,1-.58,2.41,8.55,8.55,0,0,1-7.74,3A10.15,10.15,0,0,1,5.6,33.21,1.09,1.09,0,0,0,5.51,33Z"/><path d="M21.21,5.51a3,3,0,0,1,2.16,2.4,6.31,6.31,0,0,1,3.74,1,5.94,5.94,0,0,1,2.35,6.76,5.78,5.78,0,0,1-5.54,4.08,5.69,5.69,0,0,1-5.81-4.31c-.12-.46-.31-.59-.76-.57-1,0-2,0-3,0a1.24,1.24,0,0,0-.69.23c-.86.61-1.69,1.24-2.53,1.87-.31.23-.67.42-1,.14a1.44,1.44,0,0,1-.42-.85,9.65,9.65,0,0,1,0-1.44c-1.9.23-3.56,0-4.25-2.13V7.68A3.16,3.16,0,0,1,7.68,5.51Zm-9.84,9.4a4.27,4.27,0,0,0,.51-.37,4,4,0,0,1,3.6-1.19,8,8,0,0,0,1,0h1.41a6.07,6.07,0,0,1,3.91-5.1,1.17,1.17,0,0,0-1.29-1.2H8.36A1.19,1.19,0,0,0,7.07,8.35q0,1.86,0,3.72a1.2,1.2,0,0,0,1.3,1.28H9.71C11.22,13.36,11.22,13.36,11.37,14.91Zm16.81-1.05a4.35,4.35,0,0,0-4.32-4.35,4.29,4.29,0,0,0-4.41,4.39,4.29,4.29,0,0,0,4.43,4.33A4.35,4.35,0,0,0,28.18,13.86Z"/><path d="M5.51,48.78c.52-.54,1.06-1.07,1.56-1.63a1.41,1.41,0,0,0,.3-.71c.06-.49,0-1,.07-1.49a.68.68,0,0,1,.78-.7A.76.76,0,0,1,9,45c0,.68,0,1.37,0,2.06a1.4,1.4,0,0,1-.35.71c-.36.43-.8.81-1.16,1.24a.71.71,0,0,0-.11.57c.15.46.37.89.53,1.34a.44.44,0,0,0,.53.34,3.47,3.47,0,0,1,3.24,1.27,3.11,3.11,0,0,1,.89,2.57.87.87,0,0,0,.67,1c1.37.53,1.37.57,2.39-.47a1.62,1.62,0,0,1,1.54-.6c.48.08,1-.07,1.49,0a1.84,1.84,0,0,1,1,.32c.42.31.76.75,1.16,1.09.12.11.35.08.53.11,0,0,0,0,.05,0,.53-.24,1.25-.33,1.54-.74s.12-1.09.1-1.66a1.57,1.57,0,0,1,.64-1.43,2.4,2.4,0,0,0,.65-.66A1.54,1.54,0,0,1,26,51.31a1.71,1.71,0,0,0,2.21-1.52c.09-.39.15-.65-.19-.92a3,3,0,0,1-1.38-3.22,4.28,4.28,0,0,0,0-.62.74.74,0,0,1,.7-.8.7.7,0,0,1,.84.69,7.19,7.19,0,0,1,.05,1.39.93.93,0,0,0,.32.86c.43.4.81.85,1.23,1.26A.9.9,0,0,1,30,49.54c-.38.89-.75,1.78-1.1,2.67a.92.92,0,0,1-.94.65c-.62,0-1.24,0-1.86,0a1.49,1.49,0,0,0-.66.28,2.17,2.17,0,0,0-.83,2.06c0,1.9.12,1.59-1.55,2.31-.58.25-1.17.47-1.76.73a.89.89,0,0,1-1.08-.2,4.25,4.25,0,0,1-.47-.48,2.32,2.32,0,0,0-2.35-1,1.2,1.2,0,0,0-.82.33c-.37.4-.78.77-1.17,1.16a.84.84,0,0,1-1,.19c-.93-.4-1.87-.78-2.81-1.17a.87.87,0,0,1-.56-.84v-.57c0-1.57,0-1.58-1.12-2.65a.72.72,0,0,0-.45-.18c-.55,0-1.1,0-1.65,0a1,1,0,0,1-1.12-.78c-.36-.9-.76-1.79-1.15-2.68Z"/><path d="M48.68,5.51a1.09,1.09,0,0,1,.52,1c0,4.11,0,8.22,0,12.34,0,.6-.2.87-.66.93a.71.71,0,0,1-.88-.75c0-1,0-1.93,0-2.89v-9H43.2V18.63a2.16,2.16,0,0,1,0,.51.73.73,0,0,1-.79.66.71.71,0,0,1-.74-.71c0-.15,0-.31,0-.46,0-4,0-8,0-11.93a1.45,1.45,0,0,1,.44-1.19Z"/><path d="M54.87,5.51A15.7,15.7,0,0,1,55.8,7a.81.81,0,0,0,.72.53c.36,0,.72.08,1.07.14A.8.8,0,0,1,58.1,9.1a.62.62,0,0,1-.18.18,1.87,1.87,0,0,0-.77,2.38,1.17,1.17,0,0,1-.28,1,1,1,0,0,1-1,0,2,2,0,0,0-2.64,0,.8.8,0,0,1-1,0,.77.77,0,0,1-.26-.92,2,2,0,0,0-.82-2.57,1,1,0,0,1-.31-.88c.11-.26.52-.4.81-.59h.05a1.84,1.84,0,0,0,2-1.44c.08-.27.4-.49.61-.73ZM56,9a1.3,1.3,0,0,1-1.39-.9A1.31,1.31,0,0,1,53.2,9a1.32,1.32,0,0,1,.59,1.56c.56-.47,1.06-.32,1.71.08A1.19,1.19,0,0,1,56,9Z"/><path class="cls-1" d="M7.68,5.51A3.16,3.16,0,0,0,5.51,7.68V5.51Z"/><path d="M52.11,35.53c-.39,1.39-.78,2.77-1.16,4.16a3,3,0,0,1-6,0c-.38-1.29-.75-2.57-1.13-3.85,0-.11-.08-.21-.16-.42-.28,1.52-.52,2.92-.78,4.31a2.72,2.72,0,1,1-5.33-1q1.29-7.17,2.54-14.35a3,3,0,0,1,6-.36c.6,2,1.19,4.12,1.83,6.33l.88-3.12c.3-1.09.6-2.18.92-3.27a3.09,3.09,0,0,1,3.15-2.24A3,3,0,0,1,55.6,24.2c.56,2.86,1.09,5.73,1.63,8.6.12.63-.12,1-.62,1.1s-.8-.19-.92-.81c-.51-2.73-1-5.47-1.54-8.2,0-.1,0-.2-.07-.3a1.51,1.51,0,0,0-1.38-1.31,1.62,1.62,0,0,0-1.53,1.24c-.39,1.39-.77,2.78-1.16,4.17s-.84,3-1.25,4.51c-.12.42-.3.79-.81.8s-.72-.34-.85-.8c-.81-2.82-1.62-5.64-2.45-8.46a2.52,2.52,0,0,0-.36-.84,1.38,1.38,0,0,0-1.45-.57,1.46,1.46,0,0,0-1.17,1.28c-.22,1.17-.42,2.34-.63,3.5Q40.1,33.54,39.14,39A1.18,1.18,0,0,0,40,40.45a1.13,1.13,0,0,0,1.38-1c.46-2.47.9-4.93,1.33-7.4.08-.46.2-.85.75-.89s.72.17.9.79c.71,2.47,1.43,4.95,2.15,7.42A1.63,1.63,0,0,0,48,40.62a1.68,1.68,0,0,0,1.46-1.33c.68-2.44,1.36-4.89,2.06-7.33A1.48,1.48,0,0,1,52,31.2c.48-.33,1,0,1.16.64.46,2.39.9,4.79,1.35,7.18a4.86,4.86,0,0,0,.15.66,1.11,1.11,0,0,0,1.39.75,1.17,1.17,0,0,0,.81-1.33c-.1-.57-.22-1.15-.31-1.72a.72.72,0,0,1,.59-.92A.69.69,0,0,1,58,37a14.66,14.66,0,0,1,.38,2.28A2.68,2.68,0,0,1,56,42.05,2.8,2.8,0,0,1,53,39.84c-.26-1.28-.49-2.57-.73-3.85,0-.15-.07-.3-.1-.44Z"/><path d="M39.58,49a8.62,8.62,0,0,1,0-1.35,1.64,1.64,0,0,1,.42-.91c.33-.29.72,0,1,.2l2.53,1.87A.85.85,0,0,0,44,49c.79,0,1.58,0,2.4,0-.7-2-.55-3.69,1.25-4.94a3.59,3.59,0,0,1,4.49.26,10.07,10.07,0,0,1,1.68-.77,3.68,3.68,0,0,1,4.43,4.71,7.57,7.57,0,0,1-3.14,4c-.5.36-1.06.63-1.57,1a.8.8,0,0,0-.32.55c0,.72,0,1.45-.07,2.16a2.64,2.64,0,0,1-2.64,2.4H38A2.58,2.58,0,0,1,35.36,56a40.77,40.77,0,0,1,0-4.69A2.59,2.59,0,0,1,38,49C38.47,49,39,49,39.58,49Zm1.55,0v.52c0,.84-.23,1.07-1.07,1.07H38.2a1.18,1.18,0,0,0-1.31,1.31q0,1.76,0,3.51c0,1.08.4,1.48,1.5,1.48H47c1.12,0,2.24,0,3.36,0a1.18,1.18,0,0,0,1.28-1.29c0-.48,0-1,0-1.44a.63.63,0,0,0-.43-.7,12,12,0,0,1-3.6-2.63.79.79,0,0,0-.53-.22c-1.07,0-2.14,0-3.2,0a2.24,2.24,0,0,1-1-.33C42.28,49.85,41.76,49.42,41.13,49Zm6.41-1.72a3.86,3.86,0,0,0,1,2.26A9.89,9.89,0,0,0,52,52a.69.69,0,0,0,.56,0,24.62,24.62,0,0,0,2.25-1.44A5.29,5.29,0,0,0,56.68,48a2.19,2.19,0,0,0-.6-2.49,2.12,2.12,0,0,0-3.15.46c-.49.66-1,.67-1.49,0l-.18-.25a2.1,2.1,0,0,0-2.34-.61A2.18,2.18,0,0,0,47.54,47.23Z"/><path d="M29,37.58v1.73a2.72,2.72,0,1,1-5.43.14c0-.34,0-.68,0-1V24.74a2.81,2.81,0,0,1,2.21-2.95,1.11,1.11,0,0,1,.25-.05,51.18,51.18,0,0,1,5.26.11,6.53,6.53,0,0,1,5.61,7A6.38,6.38,0,0,1,33.67,34l-.37.25,2.84,3.3a2.75,2.75,0,0,1,.31,3.34,2.7,2.7,0,0,1-4.37.3c-.92-1-1.82-2.11-2.73-3.17ZM25.1,31.94h0c0,2.48,0,5,0,7.43a1.17,1.17,0,0,0,1.11,1.25,1.21,1.21,0,0,0,1.16-1.16,3.53,3.53,0,0,0,0-.46c0-1.16,0-2.31,0-3.46A.79.79,0,0,1,28.82,35c.24.27.47.55.7.82l3.64,4.22a1.21,1.21,0,0,0,1.21.53,1.18,1.18,0,0,0,.59-2c-1-1.24-2.11-2.45-3.16-3.68-.9-1-.82-1.38.44-1.93a5,5,0,0,0,3-5.3,4.9,4.9,0,0,0-4.34-4.3c-1.42-.13-2.85-.09-4.28-.11-1.06,0-1.51.45-1.51,1.5Q25.1,28.36,25.1,31.94Z"/><path d="M38.46,12.45H34v6.4c0,.61-.29,1-.77,1s-.78-.35-.78-.94V11.8c0-.66.26-.93.94-.93h5.67c.68,0,.93.26.93.94q0,3.53,0,7.07c0,.62-.26.91-.79.9s-.76-.31-.76-.9V12.45Z"/><path d="M22.18,45.89c0-.15,0-.43-.07-.7-.06-.54.16-.89.61-1a.79.79,0,0,1,.94.73,5.76,5.76,0,0,1-2.17,5.77,5.6,5.6,0,0,1-6.43.64,5.81,5.81,0,0,1-3.23-5.66,4.48,4.48,0,0,1,.1-.82.77.77,0,0,1,.89-.66c.43.05.65.36.66.84a9.52,9.52,0,0,0,.09,2.14,4.3,4.3,0,0,0,4.84,3.23A4.44,4.44,0,0,0,22.18,45.89Z"/><path d="M52.38,16.5c0,.83,0,1.62,0,2.41,0,.61-.35.92-.9.86a.68.68,0,0,1-.66-.72q0-1.68,0-3.36a.75.75,0,0,1,.85-.77H57.5a.79.79,0,0,1,.87.87q0,1.58,0,3.15a.8.8,0,0,1-.81.87c-.45,0-.74-.33-.75-.87,0-.8,0-1.61,0-2.44Z"/><path d="M30.8,54.52a.73.73,0,0,1,.75-.74.79.79,0,1,1-.75.74Z"/><path d="M23,12.48c0-.45,0-.89,0-1.34a.72.72,0,0,1,.77-.78.75.75,0,0,1,.8.81c0,.66,0,1.31,0,2a1.06,1.06,0,0,0,.3.64c.31.32.68.57,1,.87a.71.71,0,0,1,.12,1.09.74.74,0,0,1-1.13.09,20,20,0,0,1-1.57-1.33,1.31,1.31,0,0,1-.31-.72,11.1,11.1,0,0,1,0-1.29Z"/><path d="M27.4,28.35V26.49a.71.71,0,0,1,.69-.81,13.21,13.21,0,0,1,2.67.08A2.62,2.62,0,0,1,33,28.59,2.77,2.77,0,0,1,30.4,31c-.72,0-1.45,0-2.17,0s-.82-.31-.82-.89S27.4,29,27.4,28.35ZM29,29.47a13.37,13.37,0,0,0,1.42,0,1.21,1.21,0,0,0,1.05-1.05,1.13,1.13,0,0,0-1-1.12,14.92,14.92,0,0,0-1.52-.1Z"/></svg>