<svg id="Layer_1" data-name="Layer 1" xmlns="http://www.w3.org/2000/svg" viewBox="0 0 64 64"><defs><style>.cls-1{fill:#fff;}</style></defs><path class="cls-1" d="M35.38,5.34l-2.32,1a2.85,2.85,0,0,1-2.22,0l-2.32-1Z"/><path class="cls-1" d="M48.42,45.64,45.58,40.9a14.06,14.06,0,0,1-2-7.23V29.52a11.58,11.58,0,0,0-8.27-11.09v-3a3.31,3.31,0,0,0-6.62,0v3a11.58,11.58,0,0,0-8.27,11.09v4.15a14.09,14.09,0,0,1-2,7.23l-2.84,4.73a.83.83,0,0,0,.7,1.26H47.71a.82.82,0,0,0,.72-.42A.8.8,0,0,0,48.42,45.64Z"/><path class="cls-1" d="M26.79,48.54a5.76,5.76,0,0,0,10.42,0Z"/></svg>