<svg id="Layer_1" data-name="Layer 1" xmlns="http://www.w3.org/2000/svg" viewBox="0 0 64 64"><defs><style>.cls-1{fill:#fff;}</style></defs><path d="M9.6,17.82V17.2c0-3.3,0-6.61,0-9.92,0-.44,0-.84.51-1a.94.94,0,0,1,1.1.35c.54.58,1.1,1.15,1.7,1.77l1.76-1.79c.56-.56.95-.55,1.51,0s1.11,1.14,1.72,1.76c.59-.58,1.13-1.14,1.67-1.68s1-.67,1.66,0l1.65,1.71c.63-.64,1.2-1.22,1.78-1.79s.93-.54,1.46,0,1.15,1.15,1.77,1.79c.6-.61,1.18-1.18,1.73-1.77a.92.92,0,0,1,1.06-.34c.47.18.54.57.54,1,0,3.31,0,6.61,0,9.92v.64h.89a2.47,2.47,0,0,1,2.44,2.46v2.53h.76a2.47,2.47,0,0,1,2.56,2.59V27H55.12a2.47,2.47,0,0,1,2.69,2.67q0,5.64,0,11.28a2.47,2.47,0,0,1-2.68,2.67H37.86a5.84,5.84,0,0,0,0,.73c.22,2.41-1,3.64-3.46,3.44-.76-.07-1.54,0-2.37,0v1.54c0,2,0,3.91,0,5.87a2.45,2.45,0,0,1-2.54,2.56H11.31a2.46,2.46,0,0,1-2.54-2.56c0-4.71,0-9.42,0-14.13a3,3,0,0,0-.22-1.09c-.68-1.63-1.39-3.24-2.07-4.87a2.45,2.45,0,0,1-.19-.89c0-4.56,0-9.11,0-13.66A2.48,2.48,0,0,1,9,17.82Zm10.79,1.66H9.12c-.91,0-1.18.27-1.18,1.17q0,6.59,0,13.19a2.2,2.2,0,0,0,.17.79c.69,1.66,1.42,3.3,2.1,5a2.63,2.63,0,0,1,.21,1q0,7.11,0,14.22c0,1,.25,1.24,1.22,1.24h17.5c1,0,1.23-.25,1.23-1.22,0-4.73,0-9.45,0-14.18a3.19,3.19,0,0,1,.24-1.14c.67-1.63,1.39-3.24,2.07-4.86a2.48,2.48,0,0,0,.17-.85q0-6.54,0-13.08c0-1-.25-1.24-1.22-1.24ZM37.87,41.92H55c.89,0,1.17-.28,1.17-1.19V29.83c0-.94-.27-1.21-1.2-1.21H37.9V37h3.25v1.67H37.87ZM29.53,9.18l-.13-.09c-.2.23-.39.48-.6.7-.76.77-1.06.77-1.8,0-.52-.52-1-1.07-1.6-1.68-.56.59-1,1.11-1.54,1.61-.83.85-1.08.85-1.9,0-.51-.51-1-1-1.55-1.59-.59.6-1.1,1.14-1.63,1.67-.7.71-1,.72-1.72,0-.53-.54-1-1.1-1.64-1.72-.56.59-1,1.11-1.53,1.61-.84.85-1.09.85-1.91,0l-.69-.69V17.8H29.53ZM32,46.08h2.9c1,0,1.26-.25,1.26-1.25,0-6.35,0-12.71,0-19.06,0-.94-.31-1.54-1.68-1.22v.57c0,2.94,0,5.88,0,8.83a3.59,3.59,0,0,1-.27,1.29c-.66,1.63-1.38,3.24-2.06,4.87a1.33,1.33,0,0,0-.15.54C32,42.43,32,44.21,32,46.08Z"/><path d="M47,8.68A8.31,8.31,0,1,1,38.7,17,8.29,8.29,0,0,1,47,8.68ZM53.66,17A6.65,6.65,0,1,0,47,23.64,6.69,6.69,0,0,0,53.66,17Z"/><path d="M28.72,45.28V52.5c0,.79-.27,1-1.07,1H13.16c-.8,0-1.06-.26-1.06-1V38c0-.75.27-1,1-1H27.68c.76,0,1,.27,1,1ZM13.78,38.62v3.27h3.27V38.62Zm5,3.28H22V38.63H18.76Zm5-3.29v3.28H27V38.61Zm-6.7,5H13.79v3.25h3.28Zm5,0H18.77v3.26h3.28Zm5,0H23.77v3.26H27ZM13.77,51.85h3.29V48.6H13.77Zm8.27,0V48.61H18.79v3.27Zm1.72-3.29v3.27H27V48.59Z"/><path d="M20.39,34.44H10.67c-.8,0-1.07-.26-1.07-1V22.18c0-.76.28-1,1-1H30.17c.76,0,1,.27,1,1V33.44c0,.72-.28,1-1,1Zm-9.11-1.7H29.51V22.83H11.28Z"/><path d="M51.21,30.29h2.33c.65,0,.94.3,1,1v3.06c0,.66-.3,1-1,1H48.76c-.62,0-.91-.31-.92-.94V31.22a.82.82,0,0,1,.92-.93Zm1.6,1.7H49.53v1.59h3.28Z"/><path d="M42.9,37h4.91v1.62H42.9Z"/><path d="M54.46,38.57H49.54V37h4.92Z"/><path d="M22.87,16.14H13V14.53h9.91Z"/><path d="M24.6,14.52h3.26v1.6H24.6Z"/><path d="M43.71,18.68h1.6c.11.61-.17,1.45.85,1.61V17.87c-.23-.05-.46-.09-.69-.15a2.45,2.45,0,0,1-1.78-2.35A7.16,7.16,0,0,1,43.74,14a2.57,2.57,0,0,1,2.42-2l0-.75h1.61l0,.74c1.88.33,2.62,1.34,2.44,3.34H48.69c-.06-.63.16-1.42-.82-1.62v2.46a2.4,2.4,0,0,1,2.37,1.94,5.3,5.3,0,0,1,0,2.1A2.41,2.41,0,0,1,47.86,22l0,.78H46.19V22a2.67,2.67,0,0,1-2.08-1.12A3.2,3.2,0,0,1,43.71,18.68Zm2.44-5c-.69.14-.82.36-.81,1.37,0,.69.19.93.81,1.05Zm1.71,6.58c.71-.15.83-.38.81-1.43,0-.64-.2-.88-.81-1Z"/><path class="cls-1" d="M46.15,13.7v2.42c-.62-.12-.8-.36-.81-1.05C45.33,14.06,45.46,13.84,46.15,13.7Z"/><path class="cls-1" d="M47.86,20.28V17.86c.61.11.8.35.81,1C48.69,19.9,48.57,20.13,47.86,20.28Z"/></svg>