<svg id="Layer_1" data-name="Layer 1" xmlns="http://www.w3.org/2000/svg" viewBox="0 0 64 64"><defs><style>.cls-1{fill:#fff;}</style></defs><path d="M5.43,34.64c.61-1,.74-1.15,1.65-1.52,0-.66,0-1.33,0-2a2,2,0,0,1,2.06-2.07c1.57,0,3.14,0,4.78,0V11.94A1.7,1.7,0,0,1,15.86,10h7.46a1.75,1.75,0,0,1,.6.09.69.69,0,0,1,.47.78.67.67,0,0,1-.6.67,3.18,3.18,0,0,1-.62,0H15.53V52.27H48.37V11.61l-.66,0H27.3a4.24,4.24,0,0,1-.62,0,.72.72,0,0,1-.72-.74.75.75,0,0,1,.66-.8,2.36,2.36,0,0,1,.46,0h21A1.7,1.7,0,0,1,50,11.92V25h1.48c1,0,2.1,0,3.16,0a2,2,0,0,1,2.2,2.24v1a2.15,2.15,0,0,1-1.45,2.33V33.2a2.24,2.24,0,0,1,1.46,2.53c0,.48,0,1,0,1.47.76.25,1.44.67,1.55,1.49a10.93,10.93,0,0,1,0,2.62,1.65,1.65,0,0,1-1.17,1.33c-.36.13-.42.31-.4.65a8.35,8.35,0,0,1,0,1.5,11.91,11.91,0,0,0-.36,1.36,9.62,9.62,0,0,0,.36,1.32,9.24,9.24,0,0,1,0,1.29A2.08,2.08,0,0,1,54.62,51c-1.37,0-2.73,0-4.09,0L50,51v1.21a1.65,1.65,0,0,1-1.63,1.67H15.81A1.69,1.69,0,0,1,13.93,52V51H12a.84.84,0,0,1-.91-.54.77.77,0,0,1,.79-1c.65,0,1.3,0,2,0V46.92l-.46,0H7.82c-.7,0-.84.15-.84.85,0,.37,0,.73,0,1.09a.51.51,0,0,0,.55.55c.38,0,.76,0,1.14,0a.81.81,0,0,1,.85.8.79.79,0,0,1-.8.78,9.34,9.34,0,0,1-1.4,0,2.19,2.19,0,0,1-1.89-1.61V46.87a1.09,1.09,0,0,0,0-1.56V42.83a2.35,2.35,0,0,1,1.65-1.54V38.71a2.38,2.38,0,0,1-1.65-1.48ZM50,41.27H56.3a.56.56,0,0,0,.62-.61V39.56c0-.66-.13-.79-.78-.79-1.92,0-3.83,0-5.75,0a2.85,2.85,0,0,0-.4,0ZM13.91,42.82H7.59a.56.56,0,0,0-.61.62c0,.36,0,.72,0,1.08,0,.65.14.8.78.8h5.69l.46,0Zm0-8.13H7.74c-.62,0-.76.15-.76.77v.87c0,.73.11.84.84.84H13.4l.5,0Zm0-4.08H9.25a.55.55,0,0,0-.61.61c0,.39,0,.79,0,1.19s.16.69.72.69h4.55Zm0,10.66v-2.5H9.64c-1,0-1,0-1,1,0,1.55-.08,1.54,1.53,1.52C11.4,41.26,12.64,41.27,13.9,41.27ZM50,26.55v2.5h4.64a.53.53,0,0,0,.6-.56,7.27,7.27,0,0,0,0-1.4c0-.2-.32-.51-.5-.51C53.17,26.54,51.6,26.55,50,26.55Zm0,16.27v2.5h4.69c.39,0,.56-.23.57-.6s0-.86,0-1.29a.54.54,0,0,0-.57-.6Zm0,4.07v2.49c1.61,0,3.19,0,4.77,0,.17,0,.43-.32.47-.53a8.55,8.55,0,0,0,0-1.34.53.53,0,0,0-.54-.58Zm0-9.72h4.74c.36,0,.52-.23.53-.57s0-.79,0-1.18c0-.56-.16-.71-.71-.72H50Zm0-4.07c1.13,0,2.21,0,3.29,0a.7.7,0,0,0,.5-.46,5.31,5.31,0,0,0,0-1.49.72.72,0,0,0-.47-.5c-1.1,0-2.2,0-3.32,0Z"/><path class="cls-1" d="M5.43,37.23a2.38,2.38,0,0,0,1.65,1.48v2.58a2.35,2.35,0,0,0-1.65,1.54Z"/><path class="cls-1" d="M5.43,45.31a1.09,1.09,0,0,1,0,1.56Z"/><path d="M44.36,34.37H40V47.54h4.38c0-.18,0-.36,0-.54,0-.81,0-1.62,0-2.43a.75.75,0,0,1,.75-.77.77.77,0,0,1,.79.73c0,1.12,0,2.25,0,3.37a1.28,1.28,0,0,1-1.3,1.23q-2.46,0-4.92,0a1.31,1.31,0,0,1-1.3-1.39q0-6.78,0-13.57a1.31,1.31,0,0,1,1.36-1.38c1.6,0,3.21,0,4.81,0a1.33,1.33,0,0,1,1.37,1.34c0,2.43,0,4.86,0,7.3a.79.79,0,0,1-.81.83.78.78,0,0,1-.75-.87c0-2.13,0-4.25,0-6.37Z"/><path d="M35.73,43.05c0,1.47,0,2.94,0,4.4,0,1.2-.5,1.69-1.71,1.69H29.73a1.39,1.39,0,0,1-1.56-1.52c0-3.06,0-6.11,0-9.17a1.37,1.37,0,0,1,1.55-1.52h4.45a1.39,1.39,0,0,1,1.56,1.57C35.74,40,35.73,41.53,35.73,43.05Zm-1.64,4.49v-9H29.78v9Z"/><path d="M25.52,44.08c0,1.19,0,2.38,0,3.57A1.37,1.37,0,0,1,24,49.14h-4.6A1.38,1.38,0,0,1,18,47.68v-7.2A1.37,1.37,0,0,1,19.46,39h4.61a1.34,1.34,0,0,1,1.45,1.46C25.53,41.66,25.52,42.87,25.52,44.08Zm-5.94-3.49v6.95h4.36V40.59Z"/><path d="M37.29,22.41c2,0,4,0,6,0a1.14,1.14,0,0,1,.78.43.87.87,0,0,1-.08.79,1,1,0,0,1-.7.3c-4,0-7.94,0-11.91,0-.56,0-.91-.3-.92-.76s.34-.79.93-.8Z"/><path d="M37.29,20.18c-1.93,0-3.87,0-5.8,0a1.25,1.25,0,0,1-.73-.16.92.92,0,0,1-.32-.69,1.32,1.32,0,0,1,.5-.64,1,1,0,0,1,.55-.08H43.23c.55,0,.91.34.91.79a.81.81,0,0,1-.9.79C41.26,20.19,39.27,20.18,37.29,20.18Z"/><path d="M38.81,16.4H34.42c-.4,0-.77-.14-.84-.54a1.35,1.35,0,0,1,.23-.83c.08-.13.36-.19.55-.19q4.45,0,8.9,0a.8.8,0,0,1,.89.8.84.84,0,0,1-.94.76Z"/><path d="M19.24,20.61H20.6c.09.52-.15,1.23.72,1.37V19.92c-.19,0-.39-.07-.58-.12a2.09,2.09,0,0,1-1.52-2,5.9,5.9,0,0,1,.05-1.19,2.18,2.18,0,0,1,2.05-1.71l0-.63h1.37l0,.63c1.6.28,2.22,1.13,2.07,2.83H23.47c-.06-.54.14-1.2-.7-1.38v2.09a2,2,0,0,1,2,1.65,4.45,4.45,0,0,1,0,1.78,2.07,2.07,0,0,1-2,1.55l0,.66H21.34v-.65a2.25,2.25,0,0,1-1.76-1A2.69,2.69,0,0,1,19.24,20.61Zm2.08-4.22c-.6.12-.7.3-.69,1.16,0,.59.16.79.69.89ZM22.77,22c.6-.13.7-.32.68-1.21,0-.55-.17-.75-.68-.84Z"/></svg>