<svg id="Layer_1" data-name="Layer 1" xmlns="http://www.w3.org/2000/svg" viewBox="0 0 64 64"><path d="M27.68,6.59c.29.27.54.55.39,1a.75.75,0,0,1-.85.51H21.67c-1.21,0-1.76.55-1.76,1.75,0,4.39,0,8.78,0,13.17,0,.16,0,.32,0,.43,1.24,0,2.43,0,3.63,0a21.84,21.84,0,0,1,6.76,1.09.81.81,0,0,0,.47-.08A6.3,6.3,0,0,1,32.08,24a11.55,11.55,0,0,1,2.12,0,2.1,2.1,0,0,1,1.94,2.12,2.14,2.14,0,0,1-1.87,2.15c-.31,0-.62.05-1,.08a3.75,3.75,0,0,0,0,.45v2.35l.93.07a2.13,2.13,0,0,1,1.93,2.14,2.1,2.1,0,0,1-1.87,2.13,10.39,10.39,0,0,1-2.23,0A7.91,7.91,0,0,1,30.5,35v2.72c1-1,2.28-.7,3.46-.72a2.17,2.17,0,1,1,0,4.33h-.61v1.49h.62a2.15,2.15,0,0,1,2.21,2.08,2.11,2.11,0,0,1-2.09,2.24,4.08,4.08,0,0,0-2.71.76,5.08,5.08,0,0,1-.91.45v3H51.6c1.21,0,1.75-.53,1.75-1.75,0-2.69,0-5.38,0-8.07a1.11,1.11,0,0,1,.33-.76.77.77,0,0,1,.72-.05,1,1,0,0,1,.4.71c0,1.65,0,3.3,0,5,0,1.14,0,2.28,0,3.42a3,3,0,0,1-2.93,3.08H30.47c.12,1.57-.88,2.3-2,2.88a14.46,14.46,0,0,1-4.74,1.29c-.74.1-1.48.16-2.22.2a.74.74,0,0,1-.87-.72.76.76,0,0,1,.81-.75,20,20,0,0,0,5.48-1A7.61,7.61,0,0,0,28.53,54,1.35,1.35,0,0,0,29,53.1a13.44,13.44,0,0,0,0-1.55,25.3,25.3,0,0,1-18.21,0,12.07,12.07,0,0,0,0,1.89,1.17,1.17,0,0,0,.67.73,23.29,23.29,0,0,0,3.08,1.14,27.09,27.09,0,0,0,3,.44c.17,0,.33,0,.49.06a.72.72,0,0,1,.68.82.71.71,0,0,1-.78.66A17.34,17.34,0,0,1,11,55.66a5.13,5.13,0,0,1-1.1-.83,2,2,0,0,1-.63-1.55c0-1.29,0-2.58,0-3.86a2.14,2.14,0,0,1,.9-1.89c.63-.45,1.33-.82,1.95-1.19a55.52,55.52,0,0,1,0-5.77,7.72,7.72,0,0,1-.89-.43,8.77,8.77,0,0,1-1.32-.94,1.94,1.94,0,0,1-.64-1.55c0-1.27,0-2.55,0-3.82a2.17,2.17,0,0,1,.88-1.89,10.33,10.33,0,0,1,1.6-1,.48.48,0,0,0,.32-.51c0-.93,0-1.85,0-2.78a2.43,2.43,0,0,1,1.06-2.12A9.38,9.38,0,0,1,16.7,24c.55-.13,1.1-.22,1.69-.34v-.59c0-4.26,0-8.52,0-12.78,0-1.83.57-3.13,2.38-3.74ZM22.62,29.86A22.21,22.21,0,0,0,29.26,29a10.21,10.21,0,0,0,2.19-1.1c.46-.29.44-.68,0-1A7.84,7.84,0,0,0,29.89,26a17.85,17.85,0,0,0-5.46-1,25,25,0,0,0-7.85.65,6.35,6.35,0,0,0-2.71,1.25c-.42.38-.44.71,0,1a7.23,7.23,0,0,0,1.64.89A21.31,21.31,0,0,0,22.62,29.86Zm9.14-.28a20.06,20.06,0,0,1-9.12,1.77,19.94,19.94,0,0,1-9.1-1.78c0,.59,0,1.1,0,1.61a1,1,0,0,0,.54,1,12.27,12.27,0,0,0,2.06.93,24.51,24.51,0,0,0,12.18.23,13.91,13.91,0,0,0,2.75-1,1.26,1.26,0,0,0,.66-.79A12.58,12.58,0,0,0,31.76,29.58Zm0,14.15a25.22,25.22,0,0,1-18.22,0c0,.5,0,1,0,1.55a.92.92,0,0,0,.47.92,10.5,10.5,0,0,0,2,.92,24.33,24.33,0,0,0,12.22.33,15,15,0,0,0,3-1.15,1.15,1.15,0,0,0,.58-.78A11.82,11.82,0,0,0,31.76,43.73Zm-21-7.83c0,.45,0,1,0,1.46a1.06,1.06,0,0,0,.59,1.1,12.32,12.32,0,0,0,2.07.92A25.17,25.17,0,0,0,25,39.72a8.34,8.34,0,0,0,3.36-1.24,1.34,1.34,0,0,0,.58-.74,12.53,12.53,0,0,0,0-1.83A25.2,25.2,0,0,1,10.74,35.9Zm9.07,15.88c1.47-.14,3-.22,4.42-.43A10.44,10.44,0,0,0,28,50.18a3.62,3.62,0,0,0,.82-.69.46.46,0,0,0,0-.44c-.06-.09-.28-.12-.41-.1-.65.1-1.29.24-1.95.33a28.23,28.23,0,0,1-7.79,0,13.78,13.78,0,0,1-5.16-1.55.5.5,0,0,0-.36-.08,15.3,15.3,0,0,0-2.07,1c-.57.36-.54.78,0,1.16a8.13,8.13,0,0,0,1.66.85A23.14,23.14,0,0,0,19.81,51.78Zm3.13-7.91a22.17,22.17,0,0,0,5.49-.62A7.28,7.28,0,0,0,31.36,42c.54-.43.57-.78,0-1.14a16.63,16.63,0,0,0-2.07-1,.45.45,0,0,0-.31.06,16.13,16.13,0,0,1-6.94,1.75A27,27,0,0,1,14,41.11c-.32-.07-.51.14-.38.45A1.17,1.17,0,0,0,14,42a10.32,10.32,0,0,0,1.62.83A21,21,0,0,0,22.94,43.87ZM12.2,32.38c-.26.14-.51.26-.74.41-.92.59-1,1.11,0,1.6a14.56,14.56,0,0,0,3,1.12A25.89,25.89,0,0,0,23,35.9c.81-.08,1.6-.25,2.4-.38l0-.12-1,.05a25.42,25.42,0,0,1-8.24-.74A6.36,6.36,0,0,1,12.2,32.38Zm20.87,6.16v0a10.54,10.54,0,0,0-1.13.08c-.16,0-.29.24-.4.38s.06.16.12.22a2.59,2.59,0,0,0,2.34.68.65.65,0,0,0,.63-.69.61.61,0,0,0-.63-.63C33.69,38.52,33.38,38.54,33.07,38.54Zm-1.43-4.7c.08.06.15.14.21.14a20.66,20.66,0,0,0,2.36,0c.45,0,.57-.74.22-1.07a2.29,2.29,0,0,0-1.65-.09Zm.62-8.33a3.53,3.53,0,0,1,.67.81c.2.52.57.54,1,.5s.7-.28.68-.68a.62.62,0,0,0-.67-.63C33.42,25.5,32.87,25.51,32.26,25.51Zm1.05,20.15c.47,0,.95.15,1.2-.31a.8.8,0,0,0,0-.72c-.27-.43-.74-.3-1.18-.26Z"/><path d="M52.45,6.59a8.21,8.21,0,0,1,1.22.62,2.79,2.79,0,0,1,1.16,2.35V37.82c0,.6-.3,1-.76,1s-.72-.37-.72-1V10c0-1.36-.53-1.88-1.89-1.88H31c-.68,0-1.06-.37-.91-.9a2.51,2.51,0,0,1,.41-.59Z"/><path d="M36.62,11.93H49.44c.94,0,1.12.19,1.12,1.13V19.7c0,.78-.25,1-1,1H23.72c-.79,0-1-.25-1-1q0-3.39,0-6.79c0-.76.24-1,1-1ZM49,13.45H24.24v5.73H49Z"/><path d="M40.19,24c.33,0,.66,0,1,0a2.14,2.14,0,0,1,2.09,2.09,2.11,2.11,0,0,1-1.91,2.2,14.42,14.42,0,0,1-2.37,0A2.09,2.09,0,0,1,37.1,26a2.14,2.14,0,0,1,2-2c.35,0,.7,0,1,0Zm0,2.82h.89c.44,0,.7-.28.68-.68a.62.62,0,0,0-.67-.63q-.92,0-1.83,0a.66.66,0,1,0,0,1.31Z"/><path d="M47.34,24c.35,0,.69,0,1,0a2.12,2.12,0,0,1,2,2.06,2.07,2.07,0,0,1-1.87,2.22,14,14,0,0,1-2.42,0A2.09,2.09,0,0,1,44.23,26a2.15,2.15,0,0,1,2-2C46.61,24,47,24,47.34,24Zm0,2.81h.88c.45,0,.71-.28.69-.67a.62.62,0,0,0-.67-.64c-.6,0-1.21,0-1.82,0a.65.65,0,1,0,0,1.3C46.69,26.83,47,26.82,47.32,26.82Z"/><path d="M47.31,35.54a10.84,10.84,0,0,1-1.14,0,2.13,2.13,0,0,1-1.94-2.23,2.11,2.11,0,0,1,2-2.06,15.86,15.86,0,0,1,2.18,0,2.15,2.15,0,0,1,.08,4.28c-.39,0-.79,0-1.18.06Zm0-1.49c.31,0,.62,0,.94,0a.6.6,0,0,0,.64-.66.6.6,0,0,0-.61-.64c-.64,0-1.28,0-1.92,0a.65.65,0,0,0,0,1.3C46.68,34.06,47,34.05,47.31,34.05Z"/><path d="M40.18,31.24c.38,0,.76,0,1.13,0a2.13,2.13,0,0,1,2,2.11,2.09,2.09,0,0,1-1.9,2.16,13.4,13.4,0,0,1-2.37,0,2.09,2.09,0,0,1-1.9-2.2A2.13,2.13,0,0,1,39,31.25C39.42,31.22,39.8,31.24,40.18,31.24Zm0,2.81c.31,0,.62,0,.94,0a.65.65,0,1,0,0-1.3c-.62,0-1.25,0-1.87,0a.61.61,0,0,0-.64.67.6.6,0,0,0,.63.63C39.54,34.06,39.86,34.05,40.17,34.05Z"/><path d="M47.33,41.36h-.89a2.15,2.15,0,0,1-2.21-2.07A2.17,2.17,0,0,1,46.3,37c.68,0,1.36,0,2,0a2.15,2.15,0,0,1,2.06,2.23,2.12,2.12,0,0,1-2.17,2.1Zm0-2.81c-.33,0-.66,0-1,0a.61.61,0,0,0-.63.64.62.62,0,0,0,.59.67,16.19,16.19,0,0,0,2,0,.66.66,0,0,0,0-1.31C48,38.53,47.66,38.55,47.34,38.55Z"/><path d="M40.21,42.85h.84a2.17,2.17,0,0,1,.15,4.33,17.19,17.19,0,0,1-2,0,2.17,2.17,0,0,1,.15-4.33Zm0,1.49c-.31,0-.63,0-.94,0a.64.64,0,0,0-.64.67.61.61,0,0,0,.62.64c.64,0,1.29,0,1.93,0a.6.6,0,0,0,.61-.64.63.63,0,0,0-.64-.67A7.37,7.37,0,0,0,40.18,44.34Z"/><path d="M47.27,47.22A11,11,0,0,1,46,47.13a2.13,2.13,0,0,1-1.75-2.38,2.15,2.15,0,0,1,2.17-1.9h1.78a2.17,2.17,0,0,1,.12,4.34c-.34,0-.69,0-1,0Zm0-1.56h0c.31,0,.62,0,.93,0a.66.66,0,0,0,0-1.31q-1,0-1.92,0a.62.62,0,0,0-.62.65.61.61,0,0,0,.6.66C46.66,45.68,47,45.66,47.32,45.66Z"/><path d="M40.18,41.36h-.9a2.14,2.14,0,0,1-2.18-2.09A2.17,2.17,0,0,1,39.2,37c.64,0,1.29,0,1.93,0a2.17,2.17,0,1,1-.06,4.33Zm0-1.48c.31,0,.62,0,.93,0a.64.64,0,0,0,.63-.69.61.61,0,0,0-.63-.63c-.62,0-1.25,0-1.87,0a.62.62,0,0,0-.66.65.64.64,0,0,0,.66.67C39.57,39.9,39.88,39.88,40.2,39.88Z"/><path d="M14.7,20.46H13.52a.76.76,0,0,1-.79-.77.74.74,0,0,1,.79-.71c.82,0,1.65,0,2.47,0a.73.73,0,0,1,.76.74.76.76,0,0,1-.77.74Z"/><path d="M14.73,22.76c-.41,0-.82,0-1.24,0a.74.74,0,1,1,0-1.48q1.26,0,2.52,0a.74.74,0,0,1,.74.77.73.73,0,0,1-.74.71c-.42,0-.85,0-1.28,0Z"/><path d="M16.75,17.15a.76.76,0,0,1-1.51,0,.76.76,0,0,1,.73-.78A.77.77,0,0,1,16.75,17.15Z"/></svg>