<svg id="Layer_1" data-name="Layer 1" xmlns="http://www.w3.org/2000/svg" viewBox="0 0 64 64"><path d="M35,5.36h18.8a1.51,1.51,0,0,0,.17.1A2.57,2.57,0,0,1,55.87,8q0,6.2,0,12.41a2.62,2.62,0,0,1-2.78,2.66H48v1.75A2.75,2.75,0,0,1,50.08,26a3.9,3.9,0,0,1,.49,2.43h.6c1.59,0,3.19,0,4.78,0A2.6,2.6,0,0,1,58.53,31q0,12.47,0,24.93a2.44,2.44,0,0,1-2,2.48,10,10,0,0,1-3.09,0,2.49,2.49,0,0,1-2.05-2.62c0-.85,0-1.69,0-2.55h-39c0,.94,0,1.86,0,2.77a2.59,2.59,0,0,1-2.65,2.5H8a2.48,2.48,0,0,1-2-1,7.23,7.23,0,0,1-.55-1v-26c.73-2.2,2.54-2.2,4.4-2.06,0-4.67,2.15-7.59,6.6-8.82L16,19.28A8,8,0,0,1,18.15,6a17.9,17.9,0,0,1,2.16-.65h2a1.52,1.52,0,0,0,.28.09,7.72,7.72,0,0,1,6.23,5.17,7.69,7.69,0,0,1-1.45,7.92c-.33.39-.73.72-1.09,1.07,4.5,1.23,6.63,4.2,6.63,8.77h5.26c-.15-2,.56-3.27,2.61-3.56V23.11h-5.1a2.68,2.68,0,0,1-2.84-2.78q0-6.1,0-12.2a2.63,2.63,0,0,1,2-2.67A1.51,1.51,0,0,0,35,5.36ZM56.74,51.42c0-.16,0-.26,0-.37q0-9.86,0-19.73c0-.85-.33-1.14-1.24-1.14H8.36c-.94,0-1.23.3-1.23,1.25V50.86c0,.18,0,.36,0,.56ZM44.35,21.31h8.57c.91,0,1.17-.27,1.17-1.18V8.34c0-.93-.28-1.2-1.22-1.2h-17c-1,0-1.22.26-1.22,1.24V20.07c0,1,.23,1.24,1.26,1.24Zm-23-1.78a6.2,6.2,0,0,0,0-12.39,6.2,6.2,0,1,0,0,12.39Zm27.46,8.85c0-.3,0-.57,0-.84a.87.87,0,0,0-.9-.89H40.82a.85.85,0,0,0-.88.89c0,.27,0,.55,0,.84Zm-32.91,0-2.12-5.53a6,6,0,0,0-2.1,5.51l.2,0Zm15.13,0c.32-2.71-1.11-4.92-2.13-5.49l-2.1,5.49ZM53.23,53.25c0,.87,0,1.7,0,2.52a.89.89,0,0,0,.94,1c.54,0,1.07,0,1.61,0s.9-.23.93-.73c.05-.93,0-1.85,0-2.79Zm-46.09,0c0,.9,0,1.75,0,2.59a.87.87,0,0,0,.88.91,17.22,17.22,0,0,0,1.76,0,.8.8,0,0,0,.86-.75c0-.91,0-1.82,0-2.75ZM27.22,21.69c-.79-.12-1.51-.25-2.24-.34-.11,0-.33.1-.35.19-.2,1.08-.77,2.11-.48,3.28.25,1,.43,2,.66,3.16A25.34,25.34,0,0,0,27.22,21.69Zm-9.39,6.22c.18-.89.36-1.73.52-2.56a5.72,5.72,0,0,0,.2-1.52,15.31,15.31,0,0,0-.53-2.2.48.48,0,0,0-.34-.28,5.09,5.09,0,0,0-2.24.46A22.85,22.85,0,0,0,17.83,27.91Zm5.22.48-.7-3.51c-.63,0-1.21,0-1.8,0a.41.41,0,0,0-.32.23c-.23,1.07-.43,2.16-.65,3.27Zm23-5.24H42.64v1.69h3.43ZM19.81,21.36l.44,1.73c.64,0,1.25,0,1.87,0a.47.47,0,0,0,.32-.25c.14-.47.25-1,.37-1.47Z"/><path d="M32,48.79H16.16A2.64,2.64,0,0,1,13.34,46c0-.39,0-.79,0-1.19a.59.59,0,0,0-.44-.68,3.52,3.52,0,0,1,0-6.56.58.58,0,0,0,.45-.68,14.22,14.22,0,0,1,0-1.46,2.6,2.6,0,0,1,2.3-2.53,5.69,5.69,0,0,1,.72,0H47.52c1.61,0,2.74.77,3,2.11a9.94,9.94,0,0,1,.06,2,.53.53,0,0,0,.39.6,3.53,3.53,0,0,1,0,6.61.51.51,0,0,0-.39.61c0,.41,0,.83,0,1.24a2.63,2.63,0,0,1-2.82,2.82H32Zm0-14.16H16.21c-.79,0-1.09.3-1.09,1.09s0,1.56,0,2.34a.89.89,0,0,1-.85,1,3,3,0,0,0-.75.17,1.7,1.7,0,0,0-1,1.91,1.72,1.72,0,0,0,1.56,1.43c.8.08,1,.36,1.06,1.16v2c0,1,.26,1.26,1.25,1.26H47.63c.85,0,1.15-.3,1.15-1.16V43.78c0-.88.22-1.12,1.11-1.22a1.76,1.76,0,0,0,0-3.49c-.87-.13-1.06-.35-1.06-1.21v-2c0-.93-.27-1.2-1.2-1.2Z"/><path d="M40.79,14.24a3.57,3.57,0,1,1,3.58,3.55A3.6,3.6,0,0,1,40.79,14.24Zm5.31,0A1.75,1.75,0,1,0,44.37,16,1.72,1.72,0,0,0,46.1,14.22Z"/><path d="M37.5,40.83c.94,1.1.66,2.42.63,3.68a.82.82,0,0,1-.92.73.8.8,0,0,1-.81-.78c0-.47,0-.94,0-1.4,0-1.13-.25-1.37-1.38-1.35l-.36,0c0,.83,0,1.64,0,2.44a1.53,1.53,0,0,1-.44.93.82.82,0,0,1-1.28-.46,2.15,2.15,0,0,1-.07-.62c0-2.13,0-4.25,0-6.38,0-1,.28-1.25,1.23-1.25h1.5a2.53,2.53,0,0,1,2.31,1.42,2.56,2.56,0,0,1-.18,2.75Zm-2.83-2.64v1.7c1.13.13,1.66-.14,1.68-.81S35.9,38.12,34.67,38.19Z"/><path d="M27.53,39.91h1.74c0-.85,0-1.67,0-2.5,0-.67.4-1,1-1a.89.89,0,0,1,.83,1c0,.62,0,1.24,0,1.87v4.72a3.73,3.73,0,0,1,0,.47.88.88,0,0,1-.94.83.87.87,0,0,1-.85-.88c0-.62,0-1.24,0-1.87v-.75H27.53v2c0,.25,0,.49,0,.73a.84.84,0,0,1-.9.81.87.87,0,0,1-.87-.85c0-.4,0-.8,0-1.19,0-1.91,0-3.81,0-5.71a1,1,0,0,1,.6-1.05.87.87,0,0,1,1.19.84c0,.69,0,1.38,0,2.07Z"/></svg>