<svg id="Layer_1" data-name="Layer 1" xmlns="http://www.w3.org/2000/svg" viewBox="0 0 24 24"><defs><style>.cls-1{fill:none;stroke:#000;stroke-miterlimit:10;}</style></defs><path d="M7.78,12.92A.69.69,0,0,1,8,13a5.84,5.84,0,0,1,.53.33l.31.19a5.79,5.79,0,0,0,3.13,1l.42,0a5.93,5.93,0,0,0,2.6-.86l.13-.08a5.68,5.68,0,0,0,.68-.45.67.67,0,0,1,.48-.17,2.15,2.15,0,0,1,.46.06,2.92,2.92,0,0,1,2,1.59,7,7,0,0,1,.76,2.57,19,19,0,0,1,.12,2.16,2.29,2.29,0,0,1-1.92,2.28l-.3.06H6.51l-.3-.06a2.26,2.26,0,0,1-1.87-2,9.23,9.23,0,0,1,.1-2.43,7.82,7.82,0,0,1,.51-2,3.44,3.44,0,0,1,1.48-1.83,2.87,2.87,0,0,1,1.34-.34h0m0-1A3.75,3.75,0,0,0,6,12.38,4.43,4.43,0,0,0,4,14.69,8.91,8.91,0,0,0,3.45,17a10.46,10.46,0,0,0-.11,2.68A3.28,3.28,0,0,0,6,22.56l.47.09h11l.43-.08a3.29,3.29,0,0,0,2.73-3.26A19.41,19.41,0,0,0,20.48,17a7.9,7.9,0,0,0-.87-2.92A3.88,3.88,0,0,0,16.94,12a3.08,3.08,0,0,0-.67-.09,1.71,1.71,0,0,0-1.11.39,6.28,6.28,0,0,1-.69.45,4.83,4.83,0,0,1-2.17.73H12a4.85,4.85,0,0,1-2.6-.8c-.3-.19-.58-.39-.89-.56a1.45,1.45,0,0,0-.62-.22Z"/><circle class="cls-1" cx="11.83" cy="6.89" r="3.78"/></svg>