<svg id="Layer_1" data-name="Layer 1" xmlns="http://www.w3.org/2000/svg" viewBox="0 0 24 24"><defs><style>.cls-1,.cls-2{fill:none;stroke:#000;stroke-miterlimit:10;}.cls-1{stroke-linecap:round;}</style></defs><line class="cls-1" x1="13.83" y1="8.77" x2="20.28" y2="8.77"/><line class="cls-1" x1="13.83" y1="12.44" x2="20.28" y2="12.44"/><line class="cls-1" x1="13.83" y1="16.13" x2="20.28" y2="16.13"/><path class="cls-2" d="M12,16.6V15.18a2.3,2.3,0,0,0-2.3-2.29H6a2.3,2.3,0,0,0-2.3,2.29V16.6"/><path d="M7.83,8.42A1.26,1.26,0,1,1,6.58,9.68,1.26,1.26,0,0,1,7.83,8.42m0-1a2.26,2.26,0,1,0,2.26,2.26A2.26,2.26,0,0,0,7.83,7.42Z"/><path d="M20.82,4.15a1.69,1.69,0,0,1,1.69,1.69V18.16a1.69,1.69,0,0,1-1.69,1.69H3.14a1.69,1.69,0,0,1-1.69-1.69V5.84A1.69,1.69,0,0,1,3.14,4.15H20.82m0-1H3.14A2.7,2.7,0,0,0,.45,5.84V18.16a2.7,2.7,0,0,0,2.69,2.69H20.82a2.69,2.69,0,0,0,2.69-2.69V5.84a2.69,2.69,0,0,0-2.69-2.69Z"/></svg>